<svg width="47" height="47" viewBox="0 0 47 47" fill="none" xmlns="http://www.w3.org/2000/svg">
<path d="M41.7778 0H5.22222C3.8372 0 2.50891 0.550197 1.52955 1.52955C0.550197 2.50891 0 3.8372 0 5.22222V41.7778C0 43.1628 0.550197 44.4911 1.52955 45.4704C2.50891 46.4498 3.8372 47 5.22222 47H41.7778C43.1628 47 44.4911 46.4498 45.4704 45.4704C46.4498 44.4911 47 43.1628 47 41.7778V5.22222C47 3.8372 46.4498 2.50891 45.4704 1.52955C44.4911 0.550197 43.1628 0 41.7778 0ZM41.7778 41.7778H5.22222V5.22222H41.7778V41.7778ZM15.6667 36.5556H10.4444V23.5H15.6667V36.5556ZM26.1111 36.5556H20.8889V10.4444H26.1111V36.5556ZM36.5556 36.5556H31.3333V18.2778H36.5556V36.5556Z" fill="#1E2530"/>
</svg>
